<mxfile host="app.diagrams.net" agent="Mozilla/5.0 (Windows NT 10.0; Win64; x64) AppleWebKit/537.36 (KHTML, like Gecko) Chrome/131.0.0.0 Safari/537.36" version="24.9.2">
  <diagram id="R2lEEEUBdFMjLlhIrx00" name="Page-1">
    <mxGraphModel dx="2465" dy="1903" grid="1" gridSize="10" guides="1" tooltips="1" connect="1" arrows="1" fold="1" page="1" pageScale="1" pageWidth="850" pageHeight="1100" math="0" shadow="0" extFonts="Permanent Marker^https://fonts.googleapis.com/css?family=Permanent+Marker">
      <root>
        <mxCell id="0" />
        <mxCell id="1" parent="0" />
        <mxCell id="C-vyLk0tnHw3VtMMgP7b-1" value="" style="edgeStyle=entityRelationEdgeStyle;endArrow=ERzeroToMany;startArrow=ERone;endFill=1;startFill=0;" parent="1" source="C-vyLk0tnHw3VtMMgP7b-24" target="C-vyLk0tnHw3VtMMgP7b-6" edge="1">
          <mxGeometry width="100" height="100" relative="1" as="geometry">
            <mxPoint x="340" y="720" as="sourcePoint" />
            <mxPoint x="440" y="620" as="targetPoint" />
          </mxGeometry>
        </mxCell>
        <mxCell id="C-vyLk0tnHw3VtMMgP7b-12" value="" style="edgeStyle=entityRelationEdgeStyle;endArrow=ERzeroToMany;startArrow=ERone;endFill=1;startFill=0;" parent="1" source="C-vyLk0tnHw3VtMMgP7b-3" target="C-vyLk0tnHw3VtMMgP7b-17" edge="1">
          <mxGeometry width="100" height="100" relative="1" as="geometry">
            <mxPoint x="400" y="180" as="sourcePoint" />
            <mxPoint x="460" y="205" as="targetPoint" />
          </mxGeometry>
        </mxCell>
        <mxCell id="C-vyLk0tnHw3VtMMgP7b-2" value="Orders" style="shape=table;startSize=30;container=1;collapsible=1;childLayout=tableLayout;fixedRows=1;rowLines=0;fontStyle=1;align=center;resizeLast=1;" parent="1" vertex="1">
          <mxGeometry x="450" y="120" width="250" height="130" as="geometry" />
        </mxCell>
        <mxCell id="C-vyLk0tnHw3VtMMgP7b-3" value="" style="shape=partialRectangle;collapsible=0;dropTarget=0;pointerEvents=0;fillColor=none;points=[[0,0.5],[1,0.5]];portConstraint=eastwest;top=0;left=0;right=0;bottom=1;" parent="C-vyLk0tnHw3VtMMgP7b-2" vertex="1">
          <mxGeometry y="30" width="250" height="30" as="geometry" />
        </mxCell>
        <mxCell id="C-vyLk0tnHw3VtMMgP7b-4" value="PK" style="shape=partialRectangle;overflow=hidden;connectable=0;fillColor=none;top=0;left=0;bottom=0;right=0;fontStyle=1;" parent="C-vyLk0tnHw3VtMMgP7b-3" vertex="1">
          <mxGeometry width="30" height="30" as="geometry" />
        </mxCell>
        <mxCell id="C-vyLk0tnHw3VtMMgP7b-5" value="order_id int NOT NULL " style="shape=partialRectangle;overflow=hidden;connectable=0;fillColor=none;top=0;left=0;bottom=0;right=0;align=left;spacingLeft=6;fontStyle=5;" parent="C-vyLk0tnHw3VtMMgP7b-3" vertex="1">
          <mxGeometry x="30" width="220" height="30" as="geometry" />
        </mxCell>
        <mxCell id="C-vyLk0tnHw3VtMMgP7b-6" value="" style="shape=partialRectangle;collapsible=0;dropTarget=0;pointerEvents=0;fillColor=none;points=[[0,0.5],[1,0.5]];portConstraint=eastwest;top=0;left=0;right=0;bottom=0;" parent="C-vyLk0tnHw3VtMMgP7b-2" vertex="1">
          <mxGeometry y="60" width="250" height="30" as="geometry" />
        </mxCell>
        <mxCell id="C-vyLk0tnHw3VtMMgP7b-7" value="FK1" style="shape=partialRectangle;overflow=hidden;connectable=0;fillColor=none;top=0;left=0;bottom=0;right=0;" parent="C-vyLk0tnHw3VtMMgP7b-6" vertex="1">
          <mxGeometry width="30" height="30" as="geometry" />
        </mxCell>
        <mxCell id="C-vyLk0tnHw3VtMMgP7b-8" value="customer_id int NOT NULL" style="shape=partialRectangle;overflow=hidden;connectable=0;fillColor=none;top=0;left=0;bottom=0;right=0;align=left;spacingLeft=6;" parent="C-vyLk0tnHw3VtMMgP7b-6" vertex="1">
          <mxGeometry x="30" width="220" height="30" as="geometry" />
        </mxCell>
        <mxCell id="C-vyLk0tnHw3VtMMgP7b-9" value="" style="shape=partialRectangle;collapsible=0;dropTarget=0;pointerEvents=0;fillColor=none;points=[[0,0.5],[1,0.5]];portConstraint=eastwest;top=0;left=0;right=0;bottom=0;" parent="C-vyLk0tnHw3VtMMgP7b-2" vertex="1">
          <mxGeometry y="90" width="250" height="30" as="geometry" />
        </mxCell>
        <mxCell id="C-vyLk0tnHw3VtMMgP7b-10" value="" style="shape=partialRectangle;overflow=hidden;connectable=0;fillColor=none;top=0;left=0;bottom=0;right=0;" parent="C-vyLk0tnHw3VtMMgP7b-9" vertex="1">
          <mxGeometry width="30" height="30" as="geometry" />
        </mxCell>
        <mxCell id="C-vyLk0tnHw3VtMMgP7b-11" value="order_date date NOT NULL" style="shape=partialRectangle;overflow=hidden;connectable=0;fillColor=none;top=0;left=0;bottom=0;right=0;align=left;spacingLeft=6;" parent="C-vyLk0tnHw3VtMMgP7b-9" vertex="1">
          <mxGeometry x="30" width="220" height="30" as="geometry" />
        </mxCell>
        <mxCell id="C-vyLk0tnHw3VtMMgP7b-13" value="Shipments" style="shape=table;startSize=30;container=1;collapsible=1;childLayout=tableLayout;fixedRows=1;rowLines=0;fontStyle=1;align=center;resizeLast=1;" parent="1" vertex="1">
          <mxGeometry x="450" y="280" width="250" height="130" as="geometry" />
        </mxCell>
        <mxCell id="C-vyLk0tnHw3VtMMgP7b-14" value="" style="shape=partialRectangle;collapsible=0;dropTarget=0;pointerEvents=0;fillColor=none;points=[[0,0.5],[1,0.5]];portConstraint=eastwest;top=0;left=0;right=0;bottom=1;" parent="C-vyLk0tnHw3VtMMgP7b-13" vertex="1">
          <mxGeometry y="30" width="250" height="30" as="geometry" />
        </mxCell>
        <mxCell id="C-vyLk0tnHw3VtMMgP7b-15" value="PK" style="shape=partialRectangle;overflow=hidden;connectable=0;fillColor=none;top=0;left=0;bottom=0;right=0;fontStyle=1;" parent="C-vyLk0tnHw3VtMMgP7b-14" vertex="1">
          <mxGeometry width="30" height="30" as="geometry" />
        </mxCell>
        <mxCell id="C-vyLk0tnHw3VtMMgP7b-16" value="shipment_id int NOT NULL " style="shape=partialRectangle;overflow=hidden;connectable=0;fillColor=none;top=0;left=0;bottom=0;right=0;align=left;spacingLeft=6;fontStyle=5;" parent="C-vyLk0tnHw3VtMMgP7b-14" vertex="1">
          <mxGeometry x="30" width="220" height="30" as="geometry" />
        </mxCell>
        <mxCell id="C-vyLk0tnHw3VtMMgP7b-17" value="" style="shape=partialRectangle;collapsible=0;dropTarget=0;pointerEvents=0;fillColor=none;points=[[0,0.5],[1,0.5]];portConstraint=eastwest;top=0;left=0;right=0;bottom=0;" parent="C-vyLk0tnHw3VtMMgP7b-13" vertex="1">
          <mxGeometry y="60" width="250" height="30" as="geometry" />
        </mxCell>
        <mxCell id="C-vyLk0tnHw3VtMMgP7b-18" value="FK1" style="shape=partialRectangle;overflow=hidden;connectable=0;fillColor=none;top=0;left=0;bottom=0;right=0;" parent="C-vyLk0tnHw3VtMMgP7b-17" vertex="1">
          <mxGeometry width="30" height="30" as="geometry" />
        </mxCell>
        <mxCell id="C-vyLk0tnHw3VtMMgP7b-19" value="order_id int NOT NULL" style="shape=partialRectangle;overflow=hidden;connectable=0;fillColor=none;top=0;left=0;bottom=0;right=0;align=left;spacingLeft=6;" parent="C-vyLk0tnHw3VtMMgP7b-17" vertex="1">
          <mxGeometry x="30" width="220" height="30" as="geometry" />
        </mxCell>
        <mxCell id="C-vyLk0tnHw3VtMMgP7b-20" value="" style="shape=partialRectangle;collapsible=0;dropTarget=0;pointerEvents=0;fillColor=none;points=[[0,0.5],[1,0.5]];portConstraint=eastwest;top=0;left=0;right=0;bottom=0;" parent="C-vyLk0tnHw3VtMMgP7b-13" vertex="1">
          <mxGeometry y="90" width="250" height="30" as="geometry" />
        </mxCell>
        <mxCell id="C-vyLk0tnHw3VtMMgP7b-21" value="" style="shape=partialRectangle;overflow=hidden;connectable=0;fillColor=none;top=0;left=0;bottom=0;right=0;" parent="C-vyLk0tnHw3VtMMgP7b-20" vertex="1">
          <mxGeometry width="30" height="30" as="geometry" />
        </mxCell>
        <mxCell id="C-vyLk0tnHw3VtMMgP7b-22" value="shipment_date date NOT NULL" style="shape=partialRectangle;overflow=hidden;connectable=0;fillColor=none;top=0;left=0;bottom=0;right=0;align=left;spacingLeft=6;" parent="C-vyLk0tnHw3VtMMgP7b-20" vertex="1">
          <mxGeometry x="30" width="220" height="30" as="geometry" />
        </mxCell>
        <mxCell id="C-vyLk0tnHw3VtMMgP7b-23" value="Customers" style="shape=table;startSize=30;container=1;collapsible=1;childLayout=tableLayout;fixedRows=1;rowLines=0;fontStyle=1;align=center;resizeLast=1;" parent="1" vertex="1">
          <mxGeometry x="120" y="120" width="250" height="100" as="geometry" />
        </mxCell>
        <mxCell id="C-vyLk0tnHw3VtMMgP7b-24" value="" style="shape=partialRectangle;collapsible=0;dropTarget=0;pointerEvents=0;fillColor=none;points=[[0,0.5],[1,0.5]];portConstraint=eastwest;top=0;left=0;right=0;bottom=1;" parent="C-vyLk0tnHw3VtMMgP7b-23" vertex="1">
          <mxGeometry y="30" width="250" height="30" as="geometry" />
        </mxCell>
        <mxCell id="C-vyLk0tnHw3VtMMgP7b-25" value="PK" style="shape=partialRectangle;overflow=hidden;connectable=0;fillColor=none;top=0;left=0;bottom=0;right=0;fontStyle=1;" parent="C-vyLk0tnHw3VtMMgP7b-24" vertex="1">
          <mxGeometry width="30" height="30" as="geometry" />
        </mxCell>
        <mxCell id="C-vyLk0tnHw3VtMMgP7b-26" value="customer_id int NOT NULL " style="shape=partialRectangle;overflow=hidden;connectable=0;fillColor=none;top=0;left=0;bottom=0;right=0;align=left;spacingLeft=6;fontStyle=5;" parent="C-vyLk0tnHw3VtMMgP7b-24" vertex="1">
          <mxGeometry x="30" width="220" height="30" as="geometry" />
        </mxCell>
        <mxCell id="C-vyLk0tnHw3VtMMgP7b-27" value="" style="shape=partialRectangle;collapsible=0;dropTarget=0;pointerEvents=0;fillColor=none;points=[[0,0.5],[1,0.5]];portConstraint=eastwest;top=0;left=0;right=0;bottom=0;" parent="C-vyLk0tnHw3VtMMgP7b-23" vertex="1">
          <mxGeometry y="60" width="250" height="30" as="geometry" />
        </mxCell>
        <mxCell id="C-vyLk0tnHw3VtMMgP7b-28" value="" style="shape=partialRectangle;overflow=hidden;connectable=0;fillColor=none;top=0;left=0;bottom=0;right=0;" parent="C-vyLk0tnHw3VtMMgP7b-27" vertex="1">
          <mxGeometry width="30" height="30" as="geometry" />
        </mxCell>
        <mxCell id="C-vyLk0tnHw3VtMMgP7b-29" value="customer_name char(50) NOT NULL" style="shape=partialRectangle;overflow=hidden;connectable=0;fillColor=none;top=0;left=0;bottom=0;right=0;align=left;spacingLeft=6;" parent="C-vyLk0tnHw3VtMMgP7b-27" vertex="1">
          <mxGeometry x="30" width="220" height="30" as="geometry" />
        </mxCell>
        <mxCell id="dz21GUBL6wUOjvUii49j-1" value="Doctor" style="whiteSpace=wrap;html=1;align=center;" vertex="1" parent="1">
          <mxGeometry x="-180" y="-225" width="100" height="40" as="geometry" />
        </mxCell>
        <mxCell id="dz21GUBL6wUOjvUii49j-2" value="name" style="ellipse;whiteSpace=wrap;html=1;align=center;" vertex="1" parent="1">
          <mxGeometry x="-215" y="-265" width="50" height="20" as="geometry" />
        </mxCell>
        <mxCell id="dz21GUBL6wUOjvUii49j-3" value="" style="endArrow=none;html=1;rounded=0;exitX=1;exitY=1;exitDx=0;exitDy=0;entryX=0.25;entryY=0;entryDx=0;entryDy=0;" edge="1" parent="1" source="dz21GUBL6wUOjvUii49j-2" target="dz21GUBL6wUOjvUii49j-1">
          <mxGeometry relative="1" as="geometry">
            <mxPoint x="-170" y="-205" as="sourcePoint" />
            <mxPoint x="-10" y="-205" as="targetPoint" />
          </mxGeometry>
        </mxCell>
        <mxCell id="dz21GUBL6wUOjvUii49j-4" value="line_1" style="ellipse;whiteSpace=wrap;html=1;align=center;" vertex="1" parent="1">
          <mxGeometry x="-155" y="-270" width="50" height="20" as="geometry" />
        </mxCell>
        <mxCell id="dz21GUBL6wUOjvUii49j-5" value="" style="endArrow=none;html=1;rounded=0;exitX=0.5;exitY=1;exitDx=0;exitDy=0;entryX=0.5;entryY=0;entryDx=0;entryDy=0;" edge="1" parent="1" source="dz21GUBL6wUOjvUii49j-4" target="dz21GUBL6wUOjvUii49j-1">
          <mxGeometry relative="1" as="geometry">
            <mxPoint x="-95" y="-230" as="sourcePoint" />
            <mxPoint x="-80" y="-240" as="targetPoint" />
          </mxGeometry>
        </mxCell>
        <mxCell id="dz21GUBL6wUOjvUii49j-6" value="line_2" style="ellipse;whiteSpace=wrap;html=1;align=center;" vertex="1" parent="1">
          <mxGeometry x="-100" y="-265" width="50" height="20" as="geometry" />
        </mxCell>
        <mxCell id="dz21GUBL6wUOjvUii49j-7" value="" style="endArrow=none;html=1;rounded=0;exitX=0;exitY=1;exitDx=0;exitDy=0;entryX=0.75;entryY=0;entryDx=0;entryDy=0;" edge="1" parent="1" source="dz21GUBL6wUOjvUii49j-6" target="dz21GUBL6wUOjvUii49j-1">
          <mxGeometry relative="1" as="geometry">
            <mxPoint x="-150" y="-185" as="sourcePoint" />
            <mxPoint x="-135" y="-195" as="targetPoint" />
          </mxGeometry>
        </mxCell>
        <mxCell id="dz21GUBL6wUOjvUii49j-8" value="city" style="ellipse;whiteSpace=wrap;html=1;align=center;" vertex="1" parent="1">
          <mxGeometry x="-50" y="-250" width="50" height="20" as="geometry" />
        </mxCell>
        <mxCell id="dz21GUBL6wUOjvUii49j-9" value="" style="endArrow=none;html=1;rounded=0;exitX=0;exitY=1;exitDx=0;exitDy=0;entryX=1;entryY=0;entryDx=0;entryDy=0;" edge="1" parent="1" source="dz21GUBL6wUOjvUii49j-8" target="dz21GUBL6wUOjvUii49j-1">
          <mxGeometry relative="1" as="geometry">
            <mxPoint x="-130" y="-165" as="sourcePoint" />
            <mxPoint x="-115" y="-175" as="targetPoint" />
          </mxGeometry>
        </mxCell>
        <mxCell id="dz21GUBL6wUOjvUii49j-10" value="pcode" style="ellipse;whiteSpace=wrap;html=1;align=center;" vertex="1" parent="1">
          <mxGeometry x="-260" y="-250" width="50" height="20" as="geometry" />
        </mxCell>
        <mxCell id="dz21GUBL6wUOjvUii49j-11" value="" style="endArrow=none;html=1;rounded=0;exitX=1;exitY=1;exitDx=0;exitDy=0;entryX=0;entryY=0;entryDx=0;entryDy=0;" edge="1" parent="1" source="dz21GUBL6wUOjvUii49j-10" target="dz21GUBL6wUOjvUii49j-1">
          <mxGeometry relative="1" as="geometry">
            <mxPoint x="-120" y="-155" as="sourcePoint" />
            <mxPoint x="-105" y="-165" as="targetPoint" />
          </mxGeometry>
        </mxCell>
        <mxCell id="dz21GUBL6wUOjvUii49j-12" value="phone" style="ellipse;whiteSpace=wrap;html=1;align=center;" vertex="1" parent="1">
          <mxGeometry x="-190" y="-160" width="50" height="20" as="geometry" />
        </mxCell>
        <mxCell id="dz21GUBL6wUOjvUii49j-13" value="" style="endArrow=none;html=1;rounded=0;exitX=0.5;exitY=0;exitDx=0;exitDy=0;entryX=0.25;entryY=1;entryDx=0;entryDy=0;" edge="1" parent="1" source="dz21GUBL6wUOjvUii49j-12" target="dz21GUBL6wUOjvUii49j-1">
          <mxGeometry relative="1" as="geometry">
            <mxPoint x="-110" y="-145" as="sourcePoint" />
            <mxPoint x="-95" y="-155" as="targetPoint" />
          </mxGeometry>
        </mxCell>
        <mxCell id="dz21GUBL6wUOjvUii49j-14" value="Client" style="whiteSpace=wrap;html=1;align=center;" vertex="1" parent="1">
          <mxGeometry x="405" y="50" width="100" height="40" as="geometry" />
        </mxCell>
        <mxCell id="dz21GUBL6wUOjvUii49j-15" value="name" style="ellipse;whiteSpace=wrap;html=1;align=center;" vertex="1" parent="1">
          <mxGeometry x="424" y="150" width="50" height="20" as="geometry" />
        </mxCell>
        <mxCell id="dz21GUBL6wUOjvUii49j-16" value="" style="endArrow=none;html=1;rounded=0;exitX=1;exitY=1;exitDx=0;exitDy=0;entryX=0.5;entryY=1;entryDx=0;entryDy=0;" edge="1" parent="1" source="dz21GUBL6wUOjvUii49j-15" target="dz21GUBL6wUOjvUii49j-14">
          <mxGeometry relative="1" as="geometry">
            <mxPoint x="415" y="60" as="sourcePoint" />
            <mxPoint x="575" y="60" as="targetPoint" />
          </mxGeometry>
        </mxCell>
        <mxCell id="dz21GUBL6wUOjvUii49j-17" value="line_1" style="ellipse;whiteSpace=wrap;html=1;align=center;" vertex="1" parent="1">
          <mxGeometry x="535" y="85" width="50" height="20" as="geometry" />
        </mxCell>
        <mxCell id="dz21GUBL6wUOjvUii49j-18" value="" style="endArrow=none;html=1;rounded=0;exitX=0.5;exitY=1;exitDx=0;exitDy=0;entryX=1;entryY=1;entryDx=0;entryDy=0;" edge="1" parent="1" source="dz21GUBL6wUOjvUii49j-17" target="dz21GUBL6wUOjvUii49j-14">
          <mxGeometry relative="1" as="geometry">
            <mxPoint x="490" y="35" as="sourcePoint" />
            <mxPoint x="505" y="25" as="targetPoint" />
          </mxGeometry>
        </mxCell>
        <mxCell id="dz21GUBL6wUOjvUii49j-19" value="line_2" style="ellipse;whiteSpace=wrap;html=1;align=center;" vertex="1" parent="1">
          <mxGeometry x="330" y="97" width="50" height="20" as="geometry" />
        </mxCell>
        <mxCell id="dz21GUBL6wUOjvUii49j-20" value="" style="endArrow=none;html=1;rounded=0;exitX=0;exitY=1;exitDx=0;exitDy=0;entryX=0;entryY=1;entryDx=0;entryDy=0;" edge="1" parent="1" source="dz21GUBL6wUOjvUii49j-19" target="dz21GUBL6wUOjvUii49j-14">
          <mxGeometry relative="1" as="geometry">
            <mxPoint x="435" y="80" as="sourcePoint" />
            <mxPoint x="450" y="70" as="targetPoint" />
          </mxGeometry>
        </mxCell>
        <mxCell id="dz21GUBL6wUOjvUii49j-21" value="city" style="ellipse;whiteSpace=wrap;html=1;align=center;" vertex="1" parent="1">
          <mxGeometry x="550" y="40" width="50" height="20" as="geometry" />
        </mxCell>
        <mxCell id="dz21GUBL6wUOjvUii49j-22" value="" style="endArrow=none;html=1;rounded=0;exitX=0;exitY=1;exitDx=0;exitDy=0;entryX=1;entryY=0;entryDx=0;entryDy=0;" edge="1" parent="1" source="dz21GUBL6wUOjvUii49j-21" target="dz21GUBL6wUOjvUii49j-14">
          <mxGeometry relative="1" as="geometry">
            <mxPoint x="455" y="100" as="sourcePoint" />
            <mxPoint x="470" y="90" as="targetPoint" />
          </mxGeometry>
        </mxCell>
        <mxCell id="dz21GUBL6wUOjvUii49j-23" value="pcode" style="ellipse;whiteSpace=wrap;html=1;align=center;" vertex="1" parent="1">
          <mxGeometry x="320" y="40" width="50" height="20" as="geometry" />
        </mxCell>
        <mxCell id="dz21GUBL6wUOjvUii49j-24" value="" style="endArrow=none;html=1;rounded=0;exitX=1;exitY=1;exitDx=0;exitDy=0;entryX=0;entryY=0;entryDx=0;entryDy=0;" edge="1" parent="1" source="dz21GUBL6wUOjvUii49j-23" target="dz21GUBL6wUOjvUii49j-14">
          <mxGeometry relative="1" as="geometry">
            <mxPoint x="465" y="110" as="sourcePoint" />
            <mxPoint x="480" y="100" as="targetPoint" />
          </mxGeometry>
        </mxCell>
        <mxCell id="dz21GUBL6wUOjvUii49j-25" value="phone" style="ellipse;whiteSpace=wrap;html=1;align=center;" vertex="1" parent="1">
          <mxGeometry x="385" y="110" width="50" height="20" as="geometry" />
        </mxCell>
        <mxCell id="dz21GUBL6wUOjvUii49j-26" value="" style="endArrow=none;html=1;rounded=0;exitX=0.5;exitY=0;exitDx=0;exitDy=0;entryX=0.25;entryY=1;entryDx=0;entryDy=0;" edge="1" parent="1" source="dz21GUBL6wUOjvUii49j-25" target="dz21GUBL6wUOjvUii49j-14">
          <mxGeometry relative="1" as="geometry">
            <mxPoint x="475" y="120" as="sourcePoint" />
            <mxPoint x="490" y="110" as="targetPoint" />
          </mxGeometry>
        </mxCell>
        <mxCell id="dz21GUBL6wUOjvUii49j-27" value="Assis&lt;span style=&quot;background-color: initial;&quot;&gt;tant&lt;/span&gt;" style="whiteSpace=wrap;html=1;align=center;" vertex="1" parent="1">
          <mxGeometry x="495" y="-240" width="100" height="40" as="geometry" />
        </mxCell>
        <mxCell id="dz21GUBL6wUOjvUii49j-28" value="name" style="ellipse;whiteSpace=wrap;html=1;align=center;" vertex="1" parent="1">
          <mxGeometry x="465" y="-280" width="50" height="20" as="geometry" />
        </mxCell>
        <mxCell id="dz21GUBL6wUOjvUii49j-29" value="" style="endArrow=none;html=1;rounded=0;exitX=1;exitY=1;exitDx=0;exitDy=0;entryX=0.25;entryY=0;entryDx=0;entryDy=0;" edge="1" parent="1" source="dz21GUBL6wUOjvUii49j-28" target="dz21GUBL6wUOjvUii49j-27">
          <mxGeometry relative="1" as="geometry">
            <mxPoint x="505" y="-230" as="sourcePoint" />
            <mxPoint x="665" y="-230" as="targetPoint" />
          </mxGeometry>
        </mxCell>
        <mxCell id="dz21GUBL6wUOjvUii49j-30" value="line_1" style="ellipse;whiteSpace=wrap;html=1;align=center;" vertex="1" parent="1">
          <mxGeometry x="520" y="-280" width="50" height="20" as="geometry" />
        </mxCell>
        <mxCell id="dz21GUBL6wUOjvUii49j-31" value="" style="endArrow=none;html=1;rounded=0;exitX=0.5;exitY=1;exitDx=0;exitDy=0;entryX=0.5;entryY=0;entryDx=0;entryDy=0;" edge="1" parent="1" source="dz21GUBL6wUOjvUii49j-30" target="dz21GUBL6wUOjvUii49j-27">
          <mxGeometry relative="1" as="geometry">
            <mxPoint x="580" y="-255" as="sourcePoint" />
            <mxPoint x="595" y="-265" as="targetPoint" />
          </mxGeometry>
        </mxCell>
        <mxCell id="dz21GUBL6wUOjvUii49j-32" value="line_2" style="ellipse;whiteSpace=wrap;html=1;align=center;" vertex="1" parent="1">
          <mxGeometry x="575" y="-280" width="50" height="20" as="geometry" />
        </mxCell>
        <mxCell id="dz21GUBL6wUOjvUii49j-33" value="" style="endArrow=none;html=1;rounded=0;exitX=0;exitY=1;exitDx=0;exitDy=0;entryX=0.75;entryY=0;entryDx=0;entryDy=0;" edge="1" parent="1" source="dz21GUBL6wUOjvUii49j-32" target="dz21GUBL6wUOjvUii49j-27">
          <mxGeometry relative="1" as="geometry">
            <mxPoint x="525" y="-210" as="sourcePoint" />
            <mxPoint x="540" y="-220" as="targetPoint" />
          </mxGeometry>
        </mxCell>
        <mxCell id="dz21GUBL6wUOjvUii49j-34" value="city" style="ellipse;whiteSpace=wrap;html=1;align=center;" vertex="1" parent="1">
          <mxGeometry x="630" y="-270" width="50" height="20" as="geometry" />
        </mxCell>
        <mxCell id="dz21GUBL6wUOjvUii49j-35" value="" style="endArrow=none;html=1;rounded=0;exitX=0;exitY=1;exitDx=0;exitDy=0;entryX=1;entryY=0;entryDx=0;entryDy=0;" edge="1" parent="1" source="dz21GUBL6wUOjvUii49j-34" target="dz21GUBL6wUOjvUii49j-27">
          <mxGeometry relative="1" as="geometry">
            <mxPoint x="545" y="-190" as="sourcePoint" />
            <mxPoint x="560" y="-200" as="targetPoint" />
          </mxGeometry>
        </mxCell>
        <mxCell id="dz21GUBL6wUOjvUii49j-36" value="pcode" style="ellipse;whiteSpace=wrap;html=1;align=center;" vertex="1" parent="1">
          <mxGeometry x="405" y="-270" width="50" height="20" as="geometry" />
        </mxCell>
        <mxCell id="dz21GUBL6wUOjvUii49j-37" value="" style="endArrow=none;html=1;rounded=0;exitX=1;exitY=1;exitDx=0;exitDy=0;entryX=0;entryY=0;entryDx=0;entryDy=0;" edge="1" parent="1" source="dz21GUBL6wUOjvUii49j-36" target="dz21GUBL6wUOjvUii49j-27">
          <mxGeometry relative="1" as="geometry">
            <mxPoint x="555" y="-180" as="sourcePoint" />
            <mxPoint x="570" y="-190" as="targetPoint" />
          </mxGeometry>
        </mxCell>
        <mxCell id="dz21GUBL6wUOjvUii49j-38" value="phone" style="ellipse;whiteSpace=wrap;html=1;align=center;" vertex="1" parent="1">
          <mxGeometry x="475" y="-180" width="50" height="20" as="geometry" />
        </mxCell>
        <mxCell id="dz21GUBL6wUOjvUii49j-39" value="" style="endArrow=none;html=1;rounded=0;exitX=0.5;exitY=0;exitDx=0;exitDy=0;entryX=0.25;entryY=1;entryDx=0;entryDy=0;" edge="1" parent="1" source="dz21GUBL6wUOjvUii49j-38" target="dz21GUBL6wUOjvUii49j-27">
          <mxGeometry relative="1" as="geometry">
            <mxPoint x="565" y="-170" as="sourcePoint" />
            <mxPoint x="580" y="-180" as="targetPoint" />
          </mxGeometry>
        </mxCell>
        <mxCell id="dz21GUBL6wUOjvUii49j-40" value="OMV" style="ellipse;whiteSpace=wrap;html=1;align=center;fontStyle=4;" vertex="1" parent="1">
          <mxGeometry x="-230" y="-177.5" width="40" height="25" as="geometry" />
        </mxCell>
        <mxCell id="dz21GUBL6wUOjvUii49j-41" value="" style="endArrow=none;html=1;rounded=0;exitX=1;exitY=0;exitDx=0;exitDy=0;entryX=0;entryY=1;entryDx=0;entryDy=0;" edge="1" parent="1" source="dz21GUBL6wUOjvUii49j-40" target="dz21GUBL6wUOjvUii49j-1">
          <mxGeometry relative="1" as="geometry">
            <mxPoint x="-230" y="-215" as="sourcePoint" />
            <mxPoint x="-170" y="-205" as="targetPoint" />
          </mxGeometry>
        </mxCell>
        <mxCell id="dz21GUBL6wUOjvUii49j-42" value="spclz" style="ellipse;whiteSpace=wrap;html=1;align=center;" vertex="1" parent="1">
          <mxGeometry x="-130" y="-160" width="40" height="20" as="geometry" />
        </mxCell>
        <mxCell id="dz21GUBL6wUOjvUii49j-43" value="" style="endArrow=none;html=1;rounded=0;exitX=0.5;exitY=0;exitDx=0;exitDy=0;entryX=0.5;entryY=1;entryDx=0;entryDy=0;" edge="1" parent="1" source="dz21GUBL6wUOjvUii49j-42" target="dz21GUBL6wUOjvUii49j-1">
          <mxGeometry relative="1" as="geometry">
            <mxPoint x="-60" y="-95" as="sourcePoint" />
            <mxPoint x="-105" y="-125" as="targetPoint" />
          </mxGeometry>
        </mxCell>
        <mxCell id="dz21GUBL6wUOjvUii49j-44" value="biog" style="ellipse;whiteSpace=wrap;html=1;align=center;" vertex="1" parent="1">
          <mxGeometry x="-90" y="-172.5" width="50" height="20" as="geometry" />
        </mxCell>
        <mxCell id="dz21GUBL6wUOjvUii49j-45" value="" style="endArrow=none;html=1;rounded=0;exitX=0.5;exitY=0;exitDx=0;exitDy=0;entryX=0.75;entryY=1;entryDx=0;entryDy=0;" edge="1" parent="1" source="dz21GUBL6wUOjvUii49j-44" target="dz21GUBL6wUOjvUii49j-1">
          <mxGeometry relative="1" as="geometry">
            <mxPoint x="-90" y="-125" as="sourcePoint" />
            <mxPoint x="-135" y="-155" as="targetPoint" />
          </mxGeometry>
        </mxCell>
        <mxCell id="dz21GUBL6wUOjvUii49j-46" value="TIN" style="ellipse;whiteSpace=wrap;html=1;align=center;fontStyle=4;" vertex="1" parent="1">
          <mxGeometry x="490" y="105" width="40" height="25" as="geometry" />
        </mxCell>
        <mxCell id="dz21GUBL6wUOjvUii49j-47" value="" style="endArrow=none;html=1;rounded=0;exitX=0;exitY=0;exitDx=0;exitDy=0;entryX=0.75;entryY=1;entryDx=0;entryDy=0;" edge="1" parent="1" source="dz21GUBL6wUOjvUii49j-46" target="dz21GUBL6wUOjvUii49j-14">
          <mxGeometry relative="1" as="geometry">
            <mxPoint x="420" y="120" as="sourcePoint" />
            <mxPoint x="440" y="100" as="targetPoint" />
          </mxGeometry>
        </mxCell>
        <mxCell id="dz21GUBL6wUOjvUii49j-48" value="name" style="ellipse;whiteSpace=wrap;html=1;align=center;" vertex="1" parent="1">
          <mxGeometry x="70" y="10" width="40" height="20" as="geometry" />
        </mxCell>
        <mxCell id="dz21GUBL6wUOjvUii49j-49" value="" style="endArrow=none;html=1;rounded=0;exitX=0.5;exitY=1;exitDx=0;exitDy=0;entryX=0.25;entryY=0;entryDx=0;entryDy=0;" edge="1" parent="1" source="dz21GUBL6wUOjvUii49j-48" target="dz21GUBL6wUOjvUii49j-59">
          <mxGeometry relative="1" as="geometry">
            <mxPoint x="80" y="90" as="sourcePoint" />
            <mxPoint x="45" y="95" as="targetPoint" />
          </mxGeometry>
        </mxCell>
        <mxCell id="dz21GUBL6wUOjvUii49j-50" value="age" style="ellipse;whiteSpace=wrap;html=1;align=center;" vertex="1" parent="1">
          <mxGeometry x="165" y="10" width="30" height="20" as="geometry" />
        </mxCell>
        <mxCell id="dz21GUBL6wUOjvUii49j-51" value="" style="endArrow=none;html=1;rounded=0;exitX=0.5;exitY=1;exitDx=0;exitDy=0;entryX=0.75;entryY=0;entryDx=0;entryDy=0;" edge="1" parent="1" source="dz21GUBL6wUOjvUii49j-50" target="dz21GUBL6wUOjvUii49j-59">
          <mxGeometry relative="1" as="geometry">
            <mxPoint x="290" y="90" as="sourcePoint" />
            <mxPoint x="320" y="50" as="targetPoint" />
          </mxGeometry>
        </mxCell>
        <mxCell id="dz21GUBL6wUOjvUii49j-52" value="color" style="ellipse;whiteSpace=wrap;html=1;align=center;" vertex="1" parent="1">
          <mxGeometry x="115" y="10" width="40" height="20" as="geometry" />
        </mxCell>
        <mxCell id="dz21GUBL6wUOjvUii49j-53" value="" style="endArrow=none;html=1;rounded=0;exitX=0.5;exitY=1;exitDx=0;exitDy=0;entryX=0.25;entryY=0;entryDx=0;entryDy=0;" edge="1" parent="1" source="dz21GUBL6wUOjvUii49j-59">
          <mxGeometry relative="1" as="geometry">
            <mxPoint x="100" y="110" as="sourcePoint" />
            <mxPoint x="130" y="70" as="targetPoint" />
          </mxGeometry>
        </mxCell>
        <mxCell id="dz21GUBL6wUOjvUii49j-54" value="gender" style="ellipse;whiteSpace=wrap;html=1;align=center;" vertex="1" parent="1">
          <mxGeometry x="50" y="-30" width="45" height="20" as="geometry" />
        </mxCell>
        <mxCell id="dz21GUBL6wUOjvUii49j-55" value="" style="endArrow=none;html=1;rounded=0;exitX=1;exitY=1;exitDx=0;exitDy=0;entryX=0;entryY=0;entryDx=0;entryDy=0;" edge="1" parent="1" source="dz21GUBL6wUOjvUii49j-54" target="dz21GUBL6wUOjvUii49j-59">
          <mxGeometry relative="1" as="geometry">
            <mxPoint x="110" y="120" as="sourcePoint" />
            <mxPoint x="140" y="80" as="targetPoint" />
          </mxGeometry>
        </mxCell>
        <mxCell id="dz21GUBL6wUOjvUii49j-56" value="wght_g" style="ellipse;whiteSpace=wrap;html=1;align=center;" vertex="1" parent="1">
          <mxGeometry x="200" y="20" width="50" height="20" as="geometry" />
        </mxCell>
        <mxCell id="dz21GUBL6wUOjvUii49j-57" value="" style="endArrow=none;html=1;rounded=0;exitX=0;exitY=1;exitDx=0;exitDy=0;entryX=1;entryY=0;entryDx=0;entryDy=0;" edge="1" parent="1" source="dz21GUBL6wUOjvUii49j-56" target="dz21GUBL6wUOjvUii49j-59">
          <mxGeometry relative="1" as="geometry">
            <mxPoint x="120" y="130" as="sourcePoint" />
            <mxPoint x="150" y="90" as="targetPoint" />
          </mxGeometry>
        </mxCell>
        <mxCell id="dz21GUBL6wUOjvUii49j-58" value="" style="endArrow=none;html=1;rounded=0;exitX=0.5;exitY=1;exitDx=0;exitDy=0;entryX=0.5;entryY=0;entryDx=0;entryDy=0;" edge="1" parent="1" source="dz21GUBL6wUOjvUii49j-52" target="dz21GUBL6wUOjvUii49j-59">
          <mxGeometry relative="1" as="geometry">
            <mxPoint x="135" y="30" as="sourcePoint" />
            <mxPoint x="130" y="70" as="targetPoint" />
          </mxGeometry>
        </mxCell>
        <mxCell id="dz21GUBL6wUOjvUii49j-59" value="Animal" style="shape=ext;margin=3;double=1;whiteSpace=wrap;html=1;align=center;" vertex="1" parent="1">
          <mxGeometry x="80" y="50" width="100" height="40" as="geometry" />
        </mxCell>
        <mxCell id="dz21GUBL6wUOjvUii49j-60" value="Mammals" style="whiteSpace=wrap;html=1;align=center;" vertex="1" parent="1">
          <mxGeometry x="-120" y="160" width="100" height="40" as="geometry" />
        </mxCell>
        <mxCell id="dz21GUBL6wUOjvUii49j-61" value="" style="verticalLabelPosition=bottom;verticalAlign=top;html=1;shape=mxgraph.basic.acute_triangle;dx=0.5;" vertex="1" parent="1">
          <mxGeometry x="115" y="110" width="30" height="20" as="geometry" />
        </mxCell>
        <mxCell id="dz21GUBL6wUOjvUii49j-62" value="Fish" style="whiteSpace=wrap;html=1;align=center;" vertex="1" parent="1">
          <mxGeometry x="-15" y="160" width="100" height="40" as="geometry" />
        </mxCell>
        <mxCell id="dz21GUBL6wUOjvUii49j-63" value="Birds" style="whiteSpace=wrap;html=1;align=center;" vertex="1" parent="1">
          <mxGeometry x="95" y="160" width="100" height="40" as="geometry" />
        </mxCell>
        <mxCell id="dz21GUBL6wUOjvUii49j-64" value="Reptiles" style="whiteSpace=wrap;html=1;align=center;" vertex="1" parent="1">
          <mxGeometry x="200" y="160" width="100" height="40" as="geometry" />
        </mxCell>
        <mxCell id="dz21GUBL6wUOjvUii49j-65" value="" style="verticalLabelPosition=bottom;verticalAlign=top;html=1;shape=mxgraph.basic.acute_triangle;dx=0.5;" vertex="1" parent="1">
          <mxGeometry x="-85" y="220" width="30" height="20" as="geometry" />
        </mxCell>
        <mxCell id="dz21GUBL6wUOjvUii49j-66" value="Cats" style="whiteSpace=wrap;html=1;align=center;" vertex="1" parent="1">
          <mxGeometry x="-220" y="260" width="100" height="40" as="geometry" />
        </mxCell>
        <mxCell id="dz21GUBL6wUOjvUii49j-67" value="Dogs" style="whiteSpace=wrap;html=1;align=center;" vertex="1" parent="1">
          <mxGeometry x="-100" y="260" width="100" height="40" as="geometry" />
        </mxCell>
        <mxCell id="dz21GUBL6wUOjvUii49j-68" value="Other" style="whiteSpace=wrap;html=1;align=center;" vertex="1" parent="1">
          <mxGeometry x="15" y="260" width="100" height="40" as="geometry" />
        </mxCell>
        <mxCell id="dz21GUBL6wUOjvUii49j-69" value="spc" style="ellipse;whiteSpace=wrap;html=1;align=center;" vertex="1" parent="1">
          <mxGeometry x="30" y="210" width="50" height="20" as="geometry" />
        </mxCell>
        <mxCell id="dz21GUBL6wUOjvUii49j-70" value="" style="endArrow=none;html=1;rounded=0;exitX=0.5;exitY=0;exitDx=0;exitDy=0;entryX=0.5;entryY=1;entryDx=0;entryDy=0;" edge="1" parent="1" source="dz21GUBL6wUOjvUii49j-69" target="dz21GUBL6wUOjvUii49j-62">
          <mxGeometry relative="1" as="geometry">
            <mxPoint x="125" y="257.5" as="sourcePoint" />
            <mxPoint x="90" y="262.5" as="targetPoint" />
          </mxGeometry>
        </mxCell>
        <mxCell id="dz21GUBL6wUOjvUii49j-71" value="spc" style="ellipse;whiteSpace=wrap;html=1;align=center;" vertex="1" parent="1">
          <mxGeometry x="120" y="240" width="50" height="20" as="geometry" />
        </mxCell>
        <mxCell id="dz21GUBL6wUOjvUii49j-72" value="" style="endArrow=none;html=1;rounded=0;entryX=0.75;entryY=0;entryDx=0;entryDy=0;" edge="1" parent="1" source="dz21GUBL6wUOjvUii49j-71" target="dz21GUBL6wUOjvUii49j-68">
          <mxGeometry relative="1" as="geometry">
            <mxPoint x="135" y="267.5" as="sourcePoint" />
            <mxPoint x="45" y="210" as="targetPoint" />
          </mxGeometry>
        </mxCell>
        <mxCell id="dz21GUBL6wUOjvUii49j-73" value="spc" style="ellipse;whiteSpace=wrap;html=1;align=center;" vertex="1" parent="1">
          <mxGeometry x="105" y="210" width="50" height="20" as="geometry" />
        </mxCell>
        <mxCell id="dz21GUBL6wUOjvUii49j-74" value="" style="endArrow=none;html=1;rounded=0;exitX=0.5;exitY=0;exitDx=0;exitDy=0;entryX=0.5;entryY=1;entryDx=0;entryDy=0;" edge="1" parent="1" source="dz21GUBL6wUOjvUii49j-73" target="dz21GUBL6wUOjvUii49j-63">
          <mxGeometry relative="1" as="geometry">
            <mxPoint x="145" y="277.5" as="sourcePoint" />
            <mxPoint x="55" y="220" as="targetPoint" />
          </mxGeometry>
        </mxCell>
        <mxCell id="dz21GUBL6wUOjvUii49j-75" value="spc" style="ellipse;whiteSpace=wrap;html=1;align=center;" vertex="1" parent="1">
          <mxGeometry x="170" y="210" width="50" height="20" as="geometry" />
        </mxCell>
        <mxCell id="dz21GUBL6wUOjvUii49j-76" value="" style="endArrow=none;html=1;rounded=0;exitX=0.5;exitY=1;exitDx=0;exitDy=0;" edge="1" parent="1" source="dz21GUBL6wUOjvUii49j-64" target="dz21GUBL6wUOjvUii49j-75">
          <mxGeometry relative="1" as="geometry">
            <mxPoint x="217.49999999999977" y="190" as="sourcePoint" />
            <mxPoint x="167.5" y="200" as="targetPoint" />
          </mxGeometry>
        </mxCell>
        <mxCell id="dz21GUBL6wUOjvUii49j-77" value="breed" style="ellipse;whiteSpace=wrap;html=1;align=center;" vertex="1" parent="1">
          <mxGeometry x="-170" y="310" width="50" height="20" as="geometry" />
        </mxCell>
        <mxCell id="dz21GUBL6wUOjvUii49j-78" value="" style="endArrow=none;html=1;rounded=0;exitX=0.5;exitY=0;exitDx=0;exitDy=0;entryX=0.5;entryY=1;entryDx=0;entryDy=0;" edge="1" parent="1" source="dz21GUBL6wUOjvUii49j-77" target="dz21GUBL6wUOjvUii49j-66">
          <mxGeometry relative="1" as="geometry">
            <mxPoint x="-185" y="347.5" as="sourcePoint" />
            <mxPoint x="-275" y="290" as="targetPoint" />
          </mxGeometry>
        </mxCell>
        <mxCell id="dz21GUBL6wUOjvUii49j-79" value="breed" style="ellipse;whiteSpace=wrap;html=1;align=center;" vertex="1" parent="1">
          <mxGeometry x="-100" y="310" width="50" height="20" as="geometry" />
        </mxCell>
        <mxCell id="dz21GUBL6wUOjvUii49j-80" value="" style="endArrow=none;html=1;rounded=0;exitX=0.5;exitY=0;exitDx=0;exitDy=0;entryX=0.5;entryY=1;entryDx=0;entryDy=0;" edge="1" parent="1" source="dz21GUBL6wUOjvUii49j-79" target="dz21GUBL6wUOjvUii49j-67">
          <mxGeometry relative="1" as="geometry">
            <mxPoint x="-115" y="347.5" as="sourcePoint" />
            <mxPoint x="-100" y="300" as="targetPoint" />
          </mxGeometry>
        </mxCell>
        <mxCell id="dz21GUBL6wUOjvUii49j-81" value="" style="html=1;rounded=0;exitX=1;exitY=0.5;exitDx=0;exitDy=0;shape=link;entryX=0;entryY=0.5;entryDx=0;entryDy=0;" edge="1" parent="1" source="dz21GUBL6wUOjvUii49j-59" target="dz21GUBL6wUOjvUii49j-136">
          <mxGeometry relative="1" as="geometry">
            <mxPoint x="170" y="-100" as="sourcePoint" />
            <mxPoint x="220" y="90" as="targetPoint" />
          </mxGeometry>
        </mxCell>
        <mxCell id="dz21GUBL6wUOjvUii49j-82" value="" style="endArrow=none;html=1;rounded=0;exitX=0.5;exitY=1;exitDx=0;exitDy=0;entryX=0;entryY=0;entryDx=15;entryDy=0;entryPerimeter=0;" edge="1" parent="1" source="dz21GUBL6wUOjvUii49j-59" target="dz21GUBL6wUOjvUii49j-61">
          <mxGeometry relative="1" as="geometry">
            <mxPoint x="40" y="140" as="sourcePoint" />
            <mxPoint x="200" y="140" as="targetPoint" />
          </mxGeometry>
        </mxCell>
        <mxCell id="dz21GUBL6wUOjvUii49j-83" value="" style="endArrow=none;html=1;rounded=0;entryX=0.5;entryY=0;entryDx=0;entryDy=0;exitX=0.5;exitY=1;exitDx=0;exitDy=0;exitPerimeter=0;" edge="1" parent="1" source="dz21GUBL6wUOjvUii49j-61" target="dz21GUBL6wUOjvUii49j-60">
          <mxGeometry relative="1" as="geometry">
            <mxPoint x="130" y="140" as="sourcePoint" />
            <mxPoint x="140" y="120" as="targetPoint" />
            <Array as="points">
              <mxPoint x="130" y="140" />
              <mxPoint x="-70" y="140" />
            </Array>
          </mxGeometry>
        </mxCell>
        <mxCell id="dz21GUBL6wUOjvUii49j-84" value="" style="endArrow=none;html=1;rounded=0;entryX=0.5;entryY=0;entryDx=0;entryDy=0;exitX=0.5;exitY=1;exitDx=0;exitDy=0;exitPerimeter=0;" edge="1" parent="1" source="dz21GUBL6wUOjvUii49j-61" target="dz21GUBL6wUOjvUii49j-62">
          <mxGeometry relative="1" as="geometry">
            <mxPoint x="180" y="130" as="sourcePoint" />
            <mxPoint x="-60" y="170" as="targetPoint" />
            <Array as="points">
              <mxPoint x="130" y="140" />
              <mxPoint x="35" y="140" />
            </Array>
          </mxGeometry>
        </mxCell>
        <mxCell id="dz21GUBL6wUOjvUii49j-85" value="" style="endArrow=none;html=1;rounded=0;entryX=0.5;entryY=1;entryDx=0;entryDy=0;exitX=0.5;exitY=0;exitDx=0;exitDy=0;entryPerimeter=0;" edge="1" parent="1" source="dz21GUBL6wUOjvUii49j-63" target="dz21GUBL6wUOjvUii49j-61">
          <mxGeometry relative="1" as="geometry">
            <mxPoint x="150" y="150" as="sourcePoint" />
            <mxPoint x="-50" y="180" as="targetPoint" />
            <Array as="points">
              <mxPoint x="145" y="140" />
              <mxPoint x="130" y="140" />
            </Array>
          </mxGeometry>
        </mxCell>
        <mxCell id="dz21GUBL6wUOjvUii49j-86" value="" style="endArrow=none;html=1;rounded=0;entryX=0.5;entryY=1;entryDx=0;entryDy=0;exitX=0.5;exitY=0;exitDx=0;exitDy=0;entryPerimeter=0;" edge="1" parent="1" source="dz21GUBL6wUOjvUii49j-64" target="dz21GUBL6wUOjvUii49j-61">
          <mxGeometry relative="1" as="geometry">
            <mxPoint x="160" y="160" as="sourcePoint" />
            <mxPoint x="-40" y="190" as="targetPoint" />
            <Array as="points">
              <mxPoint x="250" y="140" />
              <mxPoint x="130" y="140" />
            </Array>
          </mxGeometry>
        </mxCell>
        <mxCell id="dz21GUBL6wUOjvUii49j-87" value="" style="verticalLabelPosition=bottom;verticalAlign=top;html=1;shape=mxgraph.basic.x;fillColor=#000000;" vertex="1" parent="1">
          <mxGeometry x="127" y="117" width="6" height="6" as="geometry" />
        </mxCell>
        <mxCell id="dz21GUBL6wUOjvUii49j-88" value="" style="verticalLabelPosition=bottom;verticalAlign=top;html=1;shape=mxgraph.basic.x;fillColor=#000000;" vertex="1" parent="1">
          <mxGeometry x="-73" y="230" width="6" height="6" as="geometry" />
        </mxCell>
        <mxCell id="dz21GUBL6wUOjvUii49j-89" value="" style="endArrow=none;html=1;rounded=0;entryX=0.5;entryY=0;entryDx=0;entryDy=0;exitX=0.5;exitY=1;exitDx=0;exitDy=0;exitPerimeter=0;" edge="1" parent="1" source="dz21GUBL6wUOjvUii49j-65" target="dz21GUBL6wUOjvUii49j-66">
          <mxGeometry relative="1" as="geometry">
            <mxPoint x="140" y="140" as="sourcePoint" />
            <mxPoint x="-60" y="170" as="targetPoint" />
            <Array as="points">
              <mxPoint x="-70" y="250" />
              <mxPoint x="-170" y="250" />
            </Array>
          </mxGeometry>
        </mxCell>
        <mxCell id="dz21GUBL6wUOjvUii49j-90" value="" style="endArrow=none;html=1;rounded=0;entryX=0.5;entryY=0;entryDx=0;entryDy=0;exitX=0.5;exitY=1;exitDx=0;exitDy=0;exitPerimeter=0;" edge="1" parent="1" source="dz21GUBL6wUOjvUii49j-65" target="dz21GUBL6wUOjvUii49j-67">
          <mxGeometry relative="1" as="geometry">
            <mxPoint x="-60" y="250" as="sourcePoint" />
            <mxPoint x="-160" y="270" as="targetPoint" />
            <Array as="points">
              <mxPoint x="-70" y="250" />
              <mxPoint x="-50" y="250" />
            </Array>
          </mxGeometry>
        </mxCell>
        <mxCell id="dz21GUBL6wUOjvUii49j-91" value="" style="endArrow=none;html=1;rounded=0;exitX=0.5;exitY=1;exitDx=0;exitDy=0;exitPerimeter=0;entryX=0.5;entryY=0;entryDx=0;entryDy=0;" edge="1" parent="1" source="dz21GUBL6wUOjvUii49j-65" target="dz21GUBL6wUOjvUii49j-68">
          <mxGeometry relative="1" as="geometry">
            <mxPoint x="-50" y="260" as="sourcePoint" />
            <mxPoint x="90" y="240" as="targetPoint" />
            <Array as="points">
              <mxPoint x="-70" y="250" />
              <mxPoint x="65" y="250" />
            </Array>
          </mxGeometry>
        </mxCell>
        <mxCell id="dz21GUBL6wUOjvUii49j-92" value="" style="endArrow=none;html=1;rounded=0;exitX=0.5;exitY=1;exitDx=0;exitDy=0;entryX=0;entryY=0;entryDx=15;entryDy=0;entryPerimeter=0;" edge="1" parent="1" source="dz21GUBL6wUOjvUii49j-60" target="dz21GUBL6wUOjvUii49j-65">
          <mxGeometry relative="1" as="geometry">
            <mxPoint x="140" y="100" as="sourcePoint" />
            <mxPoint x="140" y="120" as="targetPoint" />
          </mxGeometry>
        </mxCell>
        <object label="&lt;font color=&quot;#ff0000&quot;&gt;&lt;b&gt;3º paragrafo&amp;nbsp;&lt;/b&gt;&lt;/font&gt;&lt;span style=&quot;color: rgb(255, 0, 0); background-color: initial;&quot;&gt;&lt;b&gt;(especializações de animais)&lt;/b&gt;:&lt;br&gt;Criei duas versões escolham a que acharem melhor (ou criem uma que ainda melho :)&lt;/span&gt;&lt;div&gt;&lt;font color=&quot;#ff0000&quot;&gt;Não coloquei duplalinha nas especializações, porque eles dizem &quot;can be assigned&quot; ou&amp;nbsp;&lt;/font&gt;&lt;/div&gt;&lt;div&gt;&lt;font color=&quot;#ff0000&quot;&gt;&quot;want to be able tolook up&quot; o que acho que não significa a obrigatoriedade de ter uma especialização;&amp;nbsp;&lt;/font&gt;&lt;/div&gt;" id="dz21GUBL6wUOjvUii49j-93">
          <mxCell style="text;html=1;align=center;verticalAlign=middle;resizable=1;points=[];autosize=0;strokeColor=none;fillColor=none;allowArrows=0;connectable=1;imageAspect=0;container=0;rotatable=0;perimeter=rectanglePerimeter;recursiveResize=0;resizeWidth=0;resizeHeight=0;treeFolding=0;treeMoving=0;absoluteArcSize=0;snapToPoint=0;metaEdit=0;expand=0;editable=1;movable=1;deletable=0;locked=0;cloneable=0;pointerEvents=0;" vertex="1" collapsed="1" parent="1">
            <mxGeometry x="-492.5" y="310" width="240" height="150" as="geometry" />
          </mxCell>
        </object>
        <mxCell id="dz21GUBL6wUOjvUii49j-94" value="name" style="ellipse;whiteSpace=wrap;html=1;align=center;" vertex="1" parent="1">
          <mxGeometry x="-652.5" y="20" width="40" height="20" as="geometry" />
        </mxCell>
        <mxCell id="dz21GUBL6wUOjvUii49j-95" value="" style="endArrow=none;html=1;rounded=0;exitX=0.5;exitY=1;exitDx=0;exitDy=0;entryX=0.25;entryY=0;entryDx=0;entryDy=0;" edge="1" parent="1" source="dz21GUBL6wUOjvUii49j-94" target="dz21GUBL6wUOjvUii49j-105">
          <mxGeometry relative="1" as="geometry">
            <mxPoint x="-642.5" y="100" as="sourcePoint" />
            <mxPoint x="-677.5" y="105" as="targetPoint" />
          </mxGeometry>
        </mxCell>
        <mxCell id="dz21GUBL6wUOjvUii49j-96" value="age" style="ellipse;whiteSpace=wrap;html=1;align=center;" vertex="1" parent="1">
          <mxGeometry x="-557.5" y="20" width="30" height="20" as="geometry" />
        </mxCell>
        <mxCell id="dz21GUBL6wUOjvUii49j-97" value="" style="endArrow=none;html=1;rounded=0;exitX=0.5;exitY=1;exitDx=0;exitDy=0;entryX=0.75;entryY=0;entryDx=0;entryDy=0;" edge="1" parent="1" source="dz21GUBL6wUOjvUii49j-96" target="dz21GUBL6wUOjvUii49j-105">
          <mxGeometry relative="1" as="geometry">
            <mxPoint x="-432.5" y="100" as="sourcePoint" />
            <mxPoint x="-402.5" y="60" as="targetPoint" />
          </mxGeometry>
        </mxCell>
        <mxCell id="dz21GUBL6wUOjvUii49j-98" value="color" style="ellipse;whiteSpace=wrap;html=1;align=center;" vertex="1" parent="1">
          <mxGeometry x="-607.5" y="20" width="40" height="20" as="geometry" />
        </mxCell>
        <mxCell id="dz21GUBL6wUOjvUii49j-99" value="" style="endArrow=none;html=1;rounded=0;exitX=0.5;exitY=1;exitDx=0;exitDy=0;entryX=0.25;entryY=0;entryDx=0;entryDy=0;" edge="1" parent="1" source="dz21GUBL6wUOjvUii49j-105">
          <mxGeometry relative="1" as="geometry">
            <mxPoint x="-622.5" y="120" as="sourcePoint" />
            <mxPoint x="-592.5" y="80" as="targetPoint" />
          </mxGeometry>
        </mxCell>
        <mxCell id="dz21GUBL6wUOjvUii49j-100" value="gender" style="ellipse;whiteSpace=wrap;html=1;align=center;" vertex="1" parent="1">
          <mxGeometry x="-702.5" y="30" width="45" height="20" as="geometry" />
        </mxCell>
        <mxCell id="dz21GUBL6wUOjvUii49j-101" value="" style="endArrow=none;html=1;rounded=0;exitX=1;exitY=1;exitDx=0;exitDy=0;entryX=0;entryY=0;entryDx=0;entryDy=0;" edge="1" parent="1" source="dz21GUBL6wUOjvUii49j-100" target="dz21GUBL6wUOjvUii49j-105">
          <mxGeometry relative="1" as="geometry">
            <mxPoint x="-612.5" y="130" as="sourcePoint" />
            <mxPoint x="-582.5" y="90" as="targetPoint" />
          </mxGeometry>
        </mxCell>
        <mxCell id="dz21GUBL6wUOjvUii49j-102" value="wght_g" style="ellipse;whiteSpace=wrap;html=1;align=center;" vertex="1" parent="1">
          <mxGeometry x="-522.5" y="30" width="50" height="20" as="geometry" />
        </mxCell>
        <mxCell id="dz21GUBL6wUOjvUii49j-103" value="" style="endArrow=none;html=1;rounded=0;exitX=0;exitY=1;exitDx=0;exitDy=0;entryX=1;entryY=0;entryDx=0;entryDy=0;" edge="1" parent="1" source="dz21GUBL6wUOjvUii49j-102" target="dz21GUBL6wUOjvUii49j-105">
          <mxGeometry relative="1" as="geometry">
            <mxPoint x="-602.5" y="140" as="sourcePoint" />
            <mxPoint x="-572.5" y="100" as="targetPoint" />
          </mxGeometry>
        </mxCell>
        <mxCell id="dz21GUBL6wUOjvUii49j-104" value="" style="endArrow=none;html=1;rounded=0;exitX=0.5;exitY=1;exitDx=0;exitDy=0;entryX=0.5;entryY=0;entryDx=0;entryDy=0;" edge="1" parent="1" source="dz21GUBL6wUOjvUii49j-98" target="dz21GUBL6wUOjvUii49j-105">
          <mxGeometry relative="1" as="geometry">
            <mxPoint x="-587.5" y="40" as="sourcePoint" />
            <mxPoint x="-592.5" y="80" as="targetPoint" />
          </mxGeometry>
        </mxCell>
        <mxCell id="dz21GUBL6wUOjvUii49j-105" value="Animal" style="shape=ext;margin=3;double=1;whiteSpace=wrap;html=1;align=center;" vertex="1" parent="1">
          <mxGeometry x="-642.5" y="60" width="100" height="40" as="geometry" />
        </mxCell>
        <mxCell id="dz21GUBL6wUOjvUii49j-106" value="" style="verticalLabelPosition=bottom;verticalAlign=top;html=1;shape=mxgraph.basic.acute_triangle;dx=0.5;" vertex="1" parent="1">
          <mxGeometry x="-607.5" y="110" width="30" height="20" as="geometry" />
        </mxCell>
        <mxCell id="dz21GUBL6wUOjvUii49j-107" value="Cats" style="whiteSpace=wrap;html=1;align=center;" vertex="1" parent="1">
          <mxGeometry x="-742.5" y="150" width="100" height="40" as="geometry" />
        </mxCell>
        <mxCell id="dz21GUBL6wUOjvUii49j-108" value="Dogs" style="whiteSpace=wrap;html=1;align=center;" vertex="1" parent="1">
          <mxGeometry x="-622.5" y="150" width="100" height="40" as="geometry" />
        </mxCell>
        <mxCell id="dz21GUBL6wUOjvUii49j-109" value="Other_Animals" style="whiteSpace=wrap;html=1;align=center;" vertex="1" parent="1">
          <mxGeometry x="-507.5" y="150" width="100" height="40" as="geometry" />
        </mxCell>
        <mxCell id="dz21GUBL6wUOjvUii49j-110" value="" style="endArrow=none;html=1;rounded=0;entryX=1;entryY=0.75;entryDx=0;entryDy=0;exitX=0;exitY=0;exitDx=0;exitDy=0;" edge="1" parent="1" source="dz21GUBL6wUOjvUii49j-120" target="dz21GUBL6wUOjvUii49j-109">
          <mxGeometry relative="1" as="geometry">
            <mxPoint x="-382.5" y="190" as="sourcePoint" />
            <mxPoint x="-477.5" y="100" as="targetPoint" />
          </mxGeometry>
        </mxCell>
        <mxCell id="dz21GUBL6wUOjvUii49j-111" value="breed" style="ellipse;whiteSpace=wrap;html=1;align=center;" vertex="1" parent="1">
          <mxGeometry x="-742.5" y="200" width="50" height="20" as="geometry" />
        </mxCell>
        <mxCell id="dz21GUBL6wUOjvUii49j-112" value="" style="endArrow=none;html=1;rounded=0;exitX=0.5;exitY=0;exitDx=0;exitDy=0;entryX=0.5;entryY=1;entryDx=0;entryDy=0;" edge="1" parent="1" source="dz21GUBL6wUOjvUii49j-111" target="dz21GUBL6wUOjvUii49j-107">
          <mxGeometry relative="1" as="geometry">
            <mxPoint x="-707.5" y="237.5" as="sourcePoint" />
            <mxPoint x="-797.5" y="180" as="targetPoint" />
          </mxGeometry>
        </mxCell>
        <mxCell id="dz21GUBL6wUOjvUii49j-113" value="breed" style="ellipse;whiteSpace=wrap;html=1;align=center;" vertex="1" parent="1">
          <mxGeometry x="-622.5" y="200" width="50" height="20" as="geometry" />
        </mxCell>
        <mxCell id="dz21GUBL6wUOjvUii49j-114" value="" style="endArrow=none;html=1;rounded=0;exitX=0.5;exitY=0;exitDx=0;exitDy=0;entryX=0.5;entryY=1;entryDx=0;entryDy=0;" edge="1" parent="1" source="dz21GUBL6wUOjvUii49j-113" target="dz21GUBL6wUOjvUii49j-108">
          <mxGeometry relative="1" as="geometry">
            <mxPoint x="-637.5" y="237.5" as="sourcePoint" />
            <mxPoint x="-622.5" y="190" as="targetPoint" />
          </mxGeometry>
        </mxCell>
        <mxCell id="dz21GUBL6wUOjvUii49j-115" value="" style="verticalLabelPosition=bottom;verticalAlign=top;html=1;shape=mxgraph.basic.x;fillColor=#000000;" vertex="1" parent="1">
          <mxGeometry x="-595.5" y="120" width="6" height="6" as="geometry" />
        </mxCell>
        <mxCell id="dz21GUBL6wUOjvUii49j-116" value="" style="endArrow=none;html=1;rounded=0;entryX=0.5;entryY=0;entryDx=0;entryDy=0;exitX=0.5;exitY=1;exitDx=0;exitDy=0;exitPerimeter=0;" edge="1" parent="1" source="dz21GUBL6wUOjvUii49j-106" target="dz21GUBL6wUOjvUii49j-107">
          <mxGeometry relative="1" as="geometry">
            <mxPoint x="-382.5" y="30" as="sourcePoint" />
            <mxPoint x="-582.5" y="60" as="targetPoint" />
            <Array as="points">
              <mxPoint x="-592.5" y="140" />
              <mxPoint x="-692.5" y="140" />
            </Array>
          </mxGeometry>
        </mxCell>
        <mxCell id="dz21GUBL6wUOjvUii49j-117" value="" style="endArrow=none;html=1;rounded=0;entryX=0.5;entryY=0;entryDx=0;entryDy=0;exitX=0.5;exitY=1;exitDx=0;exitDy=0;exitPerimeter=0;" edge="1" parent="1" source="dz21GUBL6wUOjvUii49j-106" target="dz21GUBL6wUOjvUii49j-108">
          <mxGeometry relative="1" as="geometry">
            <mxPoint x="-582.5" y="140" as="sourcePoint" />
            <mxPoint x="-682.5" y="160" as="targetPoint" />
            <Array as="points">
              <mxPoint x="-592.5" y="140" />
              <mxPoint x="-572.5" y="140" />
            </Array>
          </mxGeometry>
        </mxCell>
        <mxCell id="dz21GUBL6wUOjvUii49j-118" value="" style="endArrow=none;html=1;rounded=0;exitX=0.5;exitY=1;exitDx=0;exitDy=0;exitPerimeter=0;entryX=0.5;entryY=0;entryDx=0;entryDy=0;" edge="1" parent="1" source="dz21GUBL6wUOjvUii49j-106" target="dz21GUBL6wUOjvUii49j-109">
          <mxGeometry relative="1" as="geometry">
            <mxPoint x="-572.5" y="150" as="sourcePoint" />
            <mxPoint x="-432.5" y="130" as="targetPoint" />
            <Array as="points">
              <mxPoint x="-592.5" y="140" />
              <mxPoint x="-457.5" y="140" />
            </Array>
          </mxGeometry>
        </mxCell>
        <mxCell id="dz21GUBL6wUOjvUii49j-119" value="" style="endArrow=none;html=1;rounded=0;exitX=0.5;exitY=1;exitDx=0;exitDy=0;entryX=0;entryY=0;entryDx=15;entryDy=0;entryPerimeter=0;" edge="1" parent="1" source="dz21GUBL6wUOjvUii49j-105" target="dz21GUBL6wUOjvUii49j-106">
          <mxGeometry relative="1" as="geometry">
            <mxPoint x="-622.5" y="155" as="sourcePoint" />
            <mxPoint x="-412.5" y="75" as="targetPoint" />
          </mxGeometry>
        </mxCell>
        <mxCell id="dz21GUBL6wUOjvUii49j-120" value="spc" style="ellipse;whiteSpace=wrap;html=1;align=center;" vertex="1" parent="1">
          <mxGeometry x="-402.5" y="190" width="50" height="20" as="geometry" />
        </mxCell>
        <mxCell id="dz21GUBL6wUOjvUii49j-121" value="Other Mammals" style="whiteSpace=wrap;html=1;align=center;" vertex="1" parent="1">
          <mxGeometry x="-707.5" y="250" width="100" height="40" as="geometry" />
        </mxCell>
        <mxCell id="dz21GUBL6wUOjvUii49j-122" value="Fish" style="whiteSpace=wrap;html=1;align=center;" vertex="1" parent="1">
          <mxGeometry x="-602.5" y="250" width="100" height="40" as="geometry" />
        </mxCell>
        <mxCell id="dz21GUBL6wUOjvUii49j-123" value="Birds" style="whiteSpace=wrap;html=1;align=center;" vertex="1" parent="1">
          <mxGeometry x="-492.5" y="250" width="100" height="40" as="geometry" />
        </mxCell>
        <mxCell id="dz21GUBL6wUOjvUii49j-124" value="Reptiles" style="whiteSpace=wrap;html=1;align=center;" vertex="1" parent="1">
          <mxGeometry x="-387.5" y="250" width="100" height="40" as="geometry" />
        </mxCell>
        <mxCell id="dz21GUBL6wUOjvUii49j-125" value="" style="endArrow=none;html=1;rounded=0;exitX=0.5;exitY=1;exitDx=0;exitDy=0;entryX=0;entryY=0;entryDx=15;entryDy=0;entryPerimeter=0;" edge="1" parent="1" source="dz21GUBL6wUOjvUii49j-109" target="dz21GUBL6wUOjvUii49j-130">
          <mxGeometry relative="1" as="geometry">
            <mxPoint x="-640" y="230" as="sourcePoint" />
            <mxPoint x="-570" y="280" as="targetPoint" />
          </mxGeometry>
        </mxCell>
        <mxCell id="dz21GUBL6wUOjvUii49j-126" value="" style="endArrow=none;html=1;rounded=0;entryX=0.5;entryY=0;entryDx=0;entryDy=0;exitX=0.5;exitY=1;exitDx=0;exitDy=0;exitPerimeter=0;" edge="1" parent="1" target="dz21GUBL6wUOjvUii49j-121">
          <mxGeometry relative="1" as="geometry">
            <mxPoint x="-457.5" y="220" as="sourcePoint" />
            <mxPoint x="-447.5" y="210" as="targetPoint" />
            <Array as="points">
              <mxPoint x="-457.5" y="230" />
              <mxPoint x="-657.5" y="230" />
            </Array>
          </mxGeometry>
        </mxCell>
        <mxCell id="dz21GUBL6wUOjvUii49j-127" value="" style="endArrow=none;html=1;rounded=0;entryX=0.5;entryY=0;entryDx=0;entryDy=0;exitX=0.5;exitY=1;exitDx=0;exitDy=0;exitPerimeter=0;" edge="1" parent="1" target="dz21GUBL6wUOjvUii49j-122">
          <mxGeometry relative="1" as="geometry">
            <mxPoint x="-457.5" y="220" as="sourcePoint" />
            <mxPoint x="-647.5" y="260" as="targetPoint" />
            <Array as="points">
              <mxPoint x="-457.5" y="230" />
              <mxPoint x="-552.5" y="230" />
            </Array>
          </mxGeometry>
        </mxCell>
        <mxCell id="dz21GUBL6wUOjvUii49j-128" value="" style="endArrow=none;html=1;rounded=0;entryX=0.5;entryY=1;entryDx=0;entryDy=0;exitX=0.5;exitY=0;exitDx=0;exitDy=0;entryPerimeter=0;" edge="1" parent="1" source="dz21GUBL6wUOjvUii49j-123">
          <mxGeometry relative="1" as="geometry">
            <mxPoint x="-437.5" y="240" as="sourcePoint" />
            <mxPoint x="-457.5" y="220" as="targetPoint" />
            <Array as="points">
              <mxPoint x="-442.5" y="230" />
              <mxPoint x="-457.5" y="230" />
            </Array>
          </mxGeometry>
        </mxCell>
        <mxCell id="dz21GUBL6wUOjvUii49j-129" value="" style="endArrow=none;html=1;rounded=0;entryX=0.5;entryY=1;entryDx=0;entryDy=0;exitX=0.5;exitY=0;exitDx=0;exitDy=0;entryPerimeter=0;" edge="1" parent="1" source="dz21GUBL6wUOjvUii49j-124">
          <mxGeometry relative="1" as="geometry">
            <mxPoint x="-427.5" y="250" as="sourcePoint" />
            <mxPoint x="-457.5" y="220" as="targetPoint" />
            <Array as="points">
              <mxPoint x="-337.5" y="230" />
              <mxPoint x="-457.5" y="230" />
            </Array>
          </mxGeometry>
        </mxCell>
        <mxCell id="dz21GUBL6wUOjvUii49j-130" value="" style="verticalLabelPosition=bottom;verticalAlign=top;html=1;shape=mxgraph.basic.acute_triangle;dx=0.5;" vertex="1" parent="1">
          <mxGeometry x="-472.5" y="200" width="30" height="20" as="geometry" />
        </mxCell>
        <mxCell id="dz21GUBL6wUOjvUii49j-131" value="" style="verticalLabelPosition=bottom;verticalAlign=top;html=1;shape=mxgraph.basic.x;fillColor=#000000;" vertex="1" parent="1">
          <mxGeometry x="-460.5" y="210" width="6" height="6" as="geometry" />
        </mxCell>
        <mxCell id="dz21GUBL6wUOjvUii49j-132" value="&amp;lt; Does a&amp;nbsp;" style="shape=rhombus;perimeter=rhombusPerimeter;whiteSpace=wrap;html=1;align=center;verticalAlign=middle;fontFamily=Helvetica;fontSize=12;fontColor=default;autosize=0;resizable=1;fillColor=none;gradientColor=none;" vertex="1" parent="1">
          <mxGeometry x="-43" y="-70" width="73" height="60" as="geometry" />
        </mxCell>
        <mxCell id="dz21GUBL6wUOjvUii49j-133" value="date" style="ellipse;whiteSpace=wrap;html=1;align=center;" vertex="1" parent="1">
          <mxGeometry x="-110" y="-60" width="50" height="20" as="geometry" />
        </mxCell>
        <mxCell id="dz21GUBL6wUOjvUii49j-134" value="" style="endArrow=none;html=1;rounded=0;exitX=1;exitY=0;exitDx=0;exitDy=0;entryX=0;entryY=0.5;entryDx=0;entryDy=0;" edge="1" parent="1" source="dz21GUBL6wUOjvUii49j-133" target="dz21GUBL6wUOjvUii49j-132">
          <mxGeometry relative="1" as="geometry">
            <mxPoint x="-303" y="65" as="sourcePoint" />
            <mxPoint x="-13" y="-55" as="targetPoint" />
          </mxGeometry>
        </mxCell>
        <mxCell id="dz21GUBL6wUOjvUii49j-135" value="Visit" style="whiteSpace=wrap;html=1;align=center;verticalAlign=middle;fontFamily=Helvetica;fontSize=12;fontColor=default;autosize=0;resizable=1;fillColor=none;gradientColor=none;" vertex="1" parent="1">
          <mxGeometry x="165" y="-140" width="100" height="40" as="geometry" />
        </mxCell>
        <mxCell id="dz21GUBL6wUOjvUii49j-136" value="&amp;lt; Owns" style="shape=rhombus;double=1;perimeter=rhombusPerimeter;whiteSpace=wrap;html=1;align=center;verticalAlign=middle;fontFamily=Helvetica;fontSize=12;fontColor=default;autosize=0;resizable=1;fillColor=none;gradientColor=none;" vertex="1" parent="1">
          <mxGeometry x="242.5" y="50" width="65" height="40" as="geometry" />
        </mxCell>
        <mxCell id="dz21GUBL6wUOjvUii49j-137" value="" style="endArrow=none;html=1;rounded=0;fontFamily=Helvetica;fontSize=12;fontColor=default;autosize=0;resizable=1;entryX=1;entryY=0.5;entryDx=0;entryDy=0;exitX=0;exitY=0.5;exitDx=0;exitDy=0;" edge="1" parent="1" source="dz21GUBL6wUOjvUii49j-14" target="dz21GUBL6wUOjvUii49j-136">
          <mxGeometry width="50" height="50" relative="1" as="geometry">
            <mxPoint x="200" y="140" as="sourcePoint" />
            <mxPoint x="250" y="90" as="targetPoint" />
          </mxGeometry>
        </mxCell>
        <mxCell id="dz21GUBL6wUOjvUii49j-138" value="" style="endArrow=none;html=1;rounded=0;fontFamily=Helvetica;fontSize=12;fontColor=default;autosize=0;resizable=1;entryX=1;entryY=0.5;entryDx=0;entryDy=0;exitX=0;exitY=0.5;exitDx=0;exitDy=0;" edge="1" parent="1" source="dz21GUBL6wUOjvUii49j-59" target="dz21GUBL6wUOjvUii49j-132">
          <mxGeometry width="50" height="50" relative="1" as="geometry">
            <mxPoint x="220" y="180" as="sourcePoint" />
            <mxPoint x="270" y="130" as="targetPoint" />
          </mxGeometry>
        </mxCell>
        <mxCell id="dz21GUBL6wUOjvUii49j-139" value="" style="html=1;rounded=0;exitX=0.5;exitY=1;exitDx=0;exitDy=0;shape=link;entryX=0.5;entryY=0;entryDx=0;entryDy=0;" edge="1" parent="1" source="dz21GUBL6wUOjvUii49j-135" target="dz21GUBL6wUOjvUii49j-132">
          <mxGeometry relative="1" as="geometry">
            <mxPoint x="190" y="80" as="sourcePoint" />
            <mxPoint x="10" y="-80" as="targetPoint" />
          </mxGeometry>
        </mxCell>
        <mxCell id="dz21GUBL6wUOjvUii49j-140" value="" style="endArrow=classic;html=1;rounded=0;fontFamily=Helvetica;fontSize=12;fontColor=default;autosize=0;resizable=1;exitX=0.5;exitY=0;exitDx=0;exitDy=0;entryX=0.5;entryY=0;entryDx=0;entryDy=0;" edge="1" parent="1" source="dz21GUBL6wUOjvUii49j-132" target="dz21GUBL6wUOjvUii49j-132">
          <mxGeometry width="50" height="50" relative="1" as="geometry">
            <mxPoint x="220" y="180" as="sourcePoint" />
            <mxPoint x="270" y="130" as="targetPoint" />
          </mxGeometry>
        </mxCell>
        <mxCell id="dz21GUBL6wUOjvUii49j-141" value="" style="endArrow=classic;html=1;rounded=0;fontFamily=Helvetica;fontSize=12;fontColor=default;autosize=0;resizable=1;entryX=0.5;entryY=0;entryDx=0;entryDy=0;exitX=0.5;exitY=1;exitDx=0;exitDy=0;" edge="1" parent="1" source="dz21GUBL6wUOjvUii49j-135" target="dz21GUBL6wUOjvUii49j-132">
          <mxGeometry width="50" height="50" relative="1" as="geometry">
            <mxPoint x="210" y="-80" as="sourcePoint" />
            <mxPoint x="110" y="-20" as="targetPoint" />
          </mxGeometry>
        </mxCell>
        <mxCell id="dz21GUBL6wUOjvUii49j-142" value="" style="html=1;rounded=0;exitX=1;exitY=0.5;exitDx=0;exitDy=0;shape=link;entryX=0.5;entryY=0;entryDx=0;entryDy=0;" edge="1" parent="1" source="dz21GUBL6wUOjvUii49j-135" target="dz21GUBL6wUOjvUii49j-151">
          <mxGeometry relative="1" as="geometry">
            <mxPoint x="307.5" y="-130" as="sourcePoint" />
            <mxPoint x="400" y="-70" as="targetPoint" />
          </mxGeometry>
        </mxCell>
        <mxCell id="dz21GUBL6wUOjvUii49j-143" value="" style="endArrow=classic;html=1;rounded=0;fontFamily=Helvetica;fontSize=12;fontColor=default;autosize=0;resizable=1;exitX=1;exitY=0.5;exitDx=0;exitDy=0;entryX=0;entryY=0.5;entryDx=0;entryDy=0;" edge="1" parent="1" source="dz21GUBL6wUOjvUii49j-59" target="dz21GUBL6wUOjvUii49j-136">
          <mxGeometry width="50" height="50" relative="1" as="geometry">
            <mxPoint x="230" y="40" as="sourcePoint" />
            <mxPoint x="280" y="-10" as="targetPoint" />
          </mxGeometry>
        </mxCell>
        <mxCell id="dz21GUBL6wUOjvUii49j-144" value="" style="html=1;rounded=0;exitX=0;exitY=0.5;exitDx=0;exitDy=0;shape=link;entryX=1;entryY=0.5;entryDx=0;entryDy=0;" edge="1" parent="1" source="dz21GUBL6wUOjvUii49j-135" target="dz21GUBL6wUOjvUii49j-147">
          <mxGeometry relative="1" as="geometry">
            <mxPoint x="154" y="-120" as="sourcePoint" />
            <mxPoint x="-67" y="-90" as="targetPoint" />
          </mxGeometry>
        </mxCell>
        <mxCell id="dz21GUBL6wUOjvUii49j-145" value="" style="endArrow=classic;html=1;rounded=0;fontFamily=Helvetica;fontSize=12;fontColor=default;autosize=0;resizable=1;exitX=0.5;exitY=0;exitDx=0;exitDy=0;entryX=0.5;entryY=0;entryDx=0;entryDy=0;" edge="1" parent="1">
          <mxGeometry width="50" height="50" relative="1" as="geometry">
            <mxPoint x="-67" y="-90" as="sourcePoint" />
            <mxPoint x="-67" y="-90" as="targetPoint" />
          </mxGeometry>
        </mxCell>
        <mxCell id="dz21GUBL6wUOjvUii49j-146" value="" style="endArrow=classic;html=1;rounded=0;fontFamily=Helvetica;fontSize=12;fontColor=default;autosize=0;resizable=1;entryX=1;entryY=0.5;entryDx=0;entryDy=0;exitX=0;exitY=0.5;exitDx=0;exitDy=0;" edge="1" parent="1" source="dz21GUBL6wUOjvUii49j-135" target="dz21GUBL6wUOjvUii49j-147">
          <mxGeometry width="50" height="50" relative="1" as="geometry">
            <mxPoint x="154" y="-120" as="sourcePoint" />
            <mxPoint x="-67" y="-90" as="targetPoint" />
          </mxGeometry>
        </mxCell>
        <mxCell id="dz21GUBL6wUOjvUii49j-147" value="Participates &amp;gt;" style="shape=rhombus;perimeter=rhombusPerimeter;whiteSpace=wrap;html=1;align=center;verticalAlign=middle;fontFamily=Helvetica;fontSize=12;fontColor=default;autosize=0;resizable=1;fillColor=none;gradientColor=none;" vertex="1" parent="1">
          <mxGeometry x="-5" y="-200" width="95" height="47.5" as="geometry" />
        </mxCell>
        <mxCell id="dz21GUBL6wUOjvUii49j-148" value="" style="endArrow=none;html=1;rounded=0;dashed=1;dashPattern=1 2;fontFamily=Helvetica;fontSize=12;fontColor=default;autosize=0;resizable=1;exitX=1;exitY=0.5;exitDx=0;exitDy=0;entryX=0;entryY=0.5;entryDx=0;entryDy=0;" edge="1" parent="1" source="dz21GUBL6wUOjvUii49j-1" target="dz21GUBL6wUOjvUii49j-147">
          <mxGeometry relative="1" as="geometry">
            <mxPoint x="-20" y="-240" as="sourcePoint" />
            <mxPoint x="140" y="-240" as="targetPoint" />
          </mxGeometry>
        </mxCell>
        <mxCell id="dz21GUBL6wUOjvUii49j-149" value="" style="resizable=0;html=1;whiteSpace=wrap;align=left;verticalAlign=bottom;fontFamily=Helvetica;fontSize=12;fontColor=default;autosize=0;fillColor=none;gradientColor=none;" connectable="0" vertex="1" parent="dz21GUBL6wUOjvUii49j-148">
          <mxGeometry x="-1" relative="1" as="geometry" />
        </mxCell>
        <mxCell id="dz21GUBL6wUOjvUii49j-150" value="" style="resizable=0;html=1;whiteSpace=wrap;align=right;verticalAlign=bottom;fontFamily=Helvetica;fontSize=12;fontColor=default;autosize=0;fillColor=none;gradientColor=none;" connectable="0" vertex="1" parent="dz21GUBL6wUOjvUii49j-148">
          <mxGeometry x="1" relative="1" as="geometry" />
        </mxCell>
        <mxCell id="dz21GUBL6wUOjvUii49j-151" value="&amp;lt; Does a" style="shape=rhombus;perimeter=rhombusPerimeter;whiteSpace=wrap;html=1;align=center;verticalAlign=middle;fontFamily=Helvetica;fontSize=12;fontColor=default;autosize=0;resizable=1;fillColor=none;gradientColor=none;" vertex="1" parent="1">
          <mxGeometry x="395" y="-50" width="95" height="47.5" as="geometry" />
        </mxCell>
        <mxCell id="dz21GUBL6wUOjvUii49j-152" value="" style="endArrow=classic;html=1;rounded=0;fontFamily=Helvetica;fontSize=12;fontColor=default;autosize=0;resizable=1;exitX=1;exitY=0.5;exitDx=0;exitDy=0;entryX=0.5;entryY=0;entryDx=0;entryDy=0;" edge="1" parent="1" source="dz21GUBL6wUOjvUii49j-135" target="dz21GUBL6wUOjvUii49j-151">
          <mxGeometry width="50" height="50" relative="1" as="geometry">
            <mxPoint x="220" y="-80" as="sourcePoint" />
            <mxPoint x="270" y="-130" as="targetPoint" />
          </mxGeometry>
        </mxCell>
        <mxCell id="dz21GUBL6wUOjvUii49j-153" value="" style="endArrow=none;html=1;rounded=0;dashed=1;dashPattern=1 2;fontFamily=Helvetica;fontSize=12;fontColor=default;autosize=0;resizable=1;exitX=0.5;exitY=0;exitDx=0;exitDy=0;entryX=0.5;entryY=1;entryDx=0;entryDy=0;" edge="1" parent="1" source="dz21GUBL6wUOjvUii49j-14" target="dz21GUBL6wUOjvUii49j-151">
          <mxGeometry relative="1" as="geometry">
            <mxPoint x="-70" y="-195" as="sourcePoint" />
            <mxPoint x="5" y="-166" as="targetPoint" />
          </mxGeometry>
        </mxCell>
        <mxCell id="dz21GUBL6wUOjvUii49j-154" value="" style="resizable=0;html=1;whiteSpace=wrap;align=left;verticalAlign=bottom;fontFamily=Helvetica;fontSize=12;fontColor=default;autosize=0;fillColor=none;gradientColor=none;" connectable="0" vertex="1" parent="dz21GUBL6wUOjvUii49j-153">
          <mxGeometry x="-1" relative="1" as="geometry" />
        </mxCell>
        <mxCell id="dz21GUBL6wUOjvUii49j-155" value="" style="resizable=0;html=1;whiteSpace=wrap;align=right;verticalAlign=bottom;fontFamily=Helvetica;fontSize=12;fontColor=default;autosize=0;fillColor=none;gradientColor=none;" connectable="0" vertex="1" parent="dz21GUBL6wUOjvUii49j-153">
          <mxGeometry x="1" relative="1" as="geometry" />
        </mxCell>
        <mxCell id="dz21GUBL6wUOjvUii49j-156" value="&amp;lt; Participates" style="shape=rhombus;perimeter=rhombusPerimeter;whiteSpace=wrap;html=1;align=center;verticalAlign=middle;fontFamily=Helvetica;fontSize=12;fontColor=default;autosize=0;resizable=1;fillColor=none;gradientColor=none;" vertex="1" parent="1">
          <mxGeometry x="285" y="-220" width="95" height="47.5" as="geometry" />
        </mxCell>
        <mxCell id="dz21GUBL6wUOjvUii49j-157" value="" style="endArrow=none;html=1;rounded=0;fontFamily=Helvetica;fontSize=12;fontColor=default;autosize=0;resizable=1;entryX=0;entryY=0.5;entryDx=0;entryDy=0;exitX=0.5;exitY=0;exitDx=0;exitDy=0;" edge="1" parent="1" source="dz21GUBL6wUOjvUii49j-135" target="dz21GUBL6wUOjvUii49j-156">
          <mxGeometry width="50" height="50" relative="1" as="geometry">
            <mxPoint x="220" y="-80" as="sourcePoint" />
            <mxPoint x="270" y="-130" as="targetPoint" />
          </mxGeometry>
        </mxCell>
        <mxCell id="dz21GUBL6wUOjvUii49j-158" value="" style="endArrow=none;html=1;rounded=0;dashed=1;dashPattern=1 2;fontFamily=Helvetica;fontSize=12;fontColor=default;autosize=0;resizable=1;exitX=1;exitY=0.5;exitDx=0;exitDy=0;entryX=0;entryY=0.5;entryDx=0;entryDy=0;" edge="1" parent="1" source="dz21GUBL6wUOjvUii49j-156" target="dz21GUBL6wUOjvUii49j-27">
          <mxGeometry relative="1" as="geometry">
            <mxPoint x="-70" y="-195" as="sourcePoint" />
            <mxPoint x="5" y="-166" as="targetPoint" />
          </mxGeometry>
        </mxCell>
        <mxCell id="dz21GUBL6wUOjvUii49j-159" value="" style="resizable=0;html=1;whiteSpace=wrap;align=left;verticalAlign=bottom;fontFamily=Helvetica;fontSize=12;fontColor=default;autosize=0;fillColor=none;gradientColor=none;" connectable="0" vertex="1" parent="dz21GUBL6wUOjvUii49j-158">
          <mxGeometry x="-1" relative="1" as="geometry" />
        </mxCell>
        <mxCell id="dz21GUBL6wUOjvUii49j-160" value="" style="resizable=0;html=1;whiteSpace=wrap;align=right;verticalAlign=bottom;fontFamily=Helvetica;fontSize=12;fontColor=default;autosize=0;fillColor=none;gradientColor=none;" connectable="0" vertex="1" parent="dz21GUBL6wUOjvUii49j-158">
          <mxGeometry x="1" relative="1" as="geometry" />
        </mxCell>
      </root>
    </mxGraphModel>
  </diagram>
</mxfile>
